<svg width="30" height="31" viewBox="0 0 30 31" fill="none" xmlns="http://www.w3.org/2000/svg">
<path d="M30 15.1614C30 6.8771 23.2843 0.161377 15 0.161377C6.71572 0.161377 0 6.8771 0 15.1614C0 22.6483 5.48528 28.8539 12.6563 29.9792V19.4973H8.84767V15.1614H12.6563V11.8567C12.6563 8.09731 14.8956 6.02076 18.322 6.02076C19.9631 6.02076 21.6797 6.31372 21.6797 6.31372V10.0051H19.7882C17.9249 10.0051 17.3438 11.1614 17.3438 12.3476V15.1614H21.5039L20.8389 19.4973H17.3437V29.9792C24.5147 28.8539 30 22.6483 30 15.1614Z" fill="#1877F2"/>
<path d="M20.8389 19.4973L21.5039 15.1614H17.3437V12.3476C17.3437 11.1614 17.9248 10.0051 19.7882 10.0051H21.6797V6.31371C21.6797 6.31371 19.9631 6.02075 18.322 6.02075C14.8956 6.02075 12.6562 8.0973 12.6562 11.8567V15.1614H8.84766V19.4973H12.6562V29.9792C13.4316 30.1007 14.2152 30.1616 15 30.1614C15.7973 30.1614 16.5801 30.099 17.3437 29.9792V19.4973H20.8389Z" fill="white"/>
</svg>
