<svg width="12" height="59" viewBox="0 0 12 59" fill="none" xmlns="http://www.w3.org/2000/svg">
<path d="M7 1C7 0.447715 6.55228 2.41411e-08 6 0C5.44772 -2.41411e-08 5 0.447715 5 1L7 1ZM6 47.6667C3.05448 47.6667 0.666664 50.0545 0.666664 53C0.666664 55.9455 3.05448 58.3333 6 58.3333C8.94552 58.3333 11.3333 55.9455 11.3333 53C11.3333 50.0545 8.94552 47.6667 6 47.6667ZM5 4.25C5 4.80228 5.44772 5.25 6 5.25C6.55228 5.25 7 4.80228 7 4.25L5 4.25ZM7 10.75C7 10.1977 6.55228 9.75 6 9.75C5.44771 9.75 5 10.1977 5 10.75L7 10.75ZM5 17.25C5 17.8023 5.44771 18.25 6 18.25C6.55228 18.25 7 17.8023 7 17.25L5 17.25ZM7 23.75C7 23.1977 6.55228 22.75 6 22.75C5.44771 22.75 5 23.1977 5 23.75L7 23.75ZM5 30.25C5 30.8023 5.44771 31.25 6 31.25C6.55228 31.25 7 30.8023 7 30.25L5 30.25ZM7 36.75C7 36.1977 6.55228 35.75 6 35.75C5.44771 35.75 5 36.1977 5 36.75L7 36.75ZM5 43.25C5 43.8023 5.44771 44.25 6 44.25C6.55228 44.25 7 43.8023 7 43.25L5 43.25ZM7 49.75C7 49.1977 6.55228 48.75 6 48.75C5.44771 48.75 5 49.1977 5 49.75L7 49.75ZM5 1L5 4.25L7 4.25L7 1L5 1ZM5 10.75L5 17.25L7 17.25L7 10.75L5 10.75ZM5 23.75L5 30.25L7 30.25L7 23.75L5 23.75ZM5 36.75L5 43.25L7 43.25L7 36.75L5 36.75ZM5 49.75L5 53L7 53L7 49.75L5 49.75ZM7 1C7 0.447715 6.55228 2.41411e-08 6 0C5.44772 -2.41411e-08 5 0.447715 5 1L7 1ZM6 47.6667C3.05448 47.6667 0.666664 50.0545 0.666664 53C0.666664 55.9455 3.05448 58.3333 6 58.3333C8.94552 58.3333 11.3333 55.9455 11.3333 53C11.3333 50.0545 8.94552 47.6667 6 47.6667ZM5 4.25C5 4.80228 5.44772 5.25 6 5.25C6.55228 5.25 7 4.80228 7 4.25L5 4.25ZM7 10.75C7 10.1977 6.55228 9.75 6 9.75C5.44771 9.75 5 10.1977 5 10.75L7 10.75ZM5 17.25C5 17.8023 5.44771 18.25 6 18.25C6.55228 18.25 7 17.8023 7 17.25L5 17.25ZM7 23.75C7 23.1977 6.55228 22.75 6 22.75C5.44771 22.75 5 23.1977 5 23.75L7 23.75ZM5 30.25C5 30.8023 5.44771 31.25 6 31.25C6.55228 31.25 7 30.8023 7 30.25L5 30.25ZM7 36.75C7 36.1977 6.55228 35.75 6 35.75C5.44771 35.75 5 36.1977 5 36.75L7 36.75ZM5 43.25C5 43.8023 5.44771 44.25 6 44.25C6.55228 44.25 7 43.8023 7 43.25L5 43.25ZM7 49.75C7 49.1977 6.55228 48.75 6 48.75C5.44771 48.75 5 49.1977 5 49.75L7 49.75ZM5 1L5 4.25L7 4.25L7 1L5 1ZM5 10.75L5 17.25L7 17.25L7 10.75L5 10.75ZM5 23.75L5 30.25L7 30.25L7 23.75L5 23.75ZM5 36.75L5 43.25L7 43.25L7 36.75L5 36.75ZM5 49.75L5 53L7 53L7 49.75L5 49.75Z" fill="#F28F1A"/>
</svg>
