<svg width="60" height="60" viewBox="0 0 60 60" fill="none" xmlns="http://www.w3.org/2000/svg">
<path d="M9.75143 22.2198C8.94347 22.799 8.758 23.9235 9.33719 24.7314C9.91638 25.5395 11.0409 25.7248 11.8488 25.1457L9.75143 22.2198ZM22.1833 15.5227L23.232 16.9857L23.234 16.9843L22.1833 15.5227ZM37.8145 15.5227L36.7638 16.9843L36.766 16.9858L37.8145 15.5227ZM48.1516 25.1459C48.9597 25.7248 50.0841 25.5393 50.6632 24.7313C51.2423 23.9233 51.0568 22.7988 50.2487 22.2197L48.1516 25.1459ZM17.1169 28.269C17.1169 27.2749 16.311 26.469 15.3169 26.469C14.3228 26.469 13.5169 27.2749 13.5169 28.269H17.1169ZM15.3169 37.4394L17.1169 37.4529V37.4394H15.3169ZM24.3529 46.6101L24.3397 48.4101H24.3529V46.6101ZM35.6473 46.6101V48.4101L35.6605 48.4098L35.6473 46.6101ZM44.6833 37.4394H42.8833V37.4529L44.6833 37.4394ZM46.4833 28.269C46.4833 27.2749 45.6774 26.469 44.6833 26.469C43.6893 26.469 42.8833 27.2749 42.8833 28.269H46.4833ZM11.8488 25.1457L23.232 16.9857L21.1346 14.0598L9.75143 22.2198L11.8488 25.1457ZM23.234 16.9843C27.2759 14.0786 32.722 14.0786 36.7638 16.9843L38.8653 14.0612C33.5677 10.253 26.4301 10.253 21.1327 14.0612L23.234 16.9843ZM36.766 16.9858L48.1516 25.1459L50.2487 22.2197L38.8631 14.0597L36.766 16.9858ZM13.5169 28.269V37.4394H17.1169V28.269H13.5169ZM13.517 37.4262C13.4956 40.318 14.6238 43.0998 16.6534 45.1595L19.2178 42.6328C17.8583 41.253 17.1026 39.3899 17.1169 37.4529L13.517 37.4262ZM16.6534 45.1595C18.6831 47.2194 21.448 48.3889 24.3397 48.4101L24.3661 44.8101C22.4292 44.7957 20.5773 44.0125 19.2178 42.6328L16.6534 45.1595ZM24.3529 48.4101H35.6473V44.8101H24.3529V48.4101ZM35.6605 48.4098C38.5523 48.3887 41.3171 47.2194 43.3468 45.1595L40.7826 42.6328C39.423 44.0125 37.5709 44.7957 35.6341 44.8101L35.6605 48.4098ZM43.3468 45.1595C45.3765 43.0998 46.5047 40.318 46.4833 37.4262L42.8833 37.4529C42.8977 39.3899 42.142 41.253 40.7826 42.6328L43.3468 45.1595ZM46.4833 37.4394V28.269H42.8833V37.4394H46.4833Z" fill="#F28F1A"/>
<path fill-rule="evenodd" clip-rule="evenodd" d="M25.4835 28.2919C25.5192 25.8375 27.5585 23.873 30.0461 23.8968C32.5337 23.9206 34.5339 25.9237 34.5214 28.3786C34.5087 30.8332 32.4881 32.8164 30.0003 32.8152C27.4894 32.7917 25.4703 30.7698 25.4835 28.2919Z" stroke="#F28F1A" stroke-width="3.6" stroke-linecap="round" stroke-linejoin="round"/>
</svg>
