<svg width="30" height="31" viewBox="0 0 30 31" fill="none" xmlns="http://www.w3.org/2000/svg">
<path d="M15.0049 0.165527C8.74253 0.165527 6.91103 0.171988 6.55502 0.201521C5.26988 0.308347 4.47018 0.510693 3.59896 0.944458C2.92755 1.27786 2.39804 1.66432 1.87544 2.20607C0.923698 3.19403 0.346883 4.4095 0.138077 5.8543C0.0365572 6.55571 0.00702432 6.69876 0.00102545 10.2815C-0.00128181 11.4757 0.00102545 13.0474 0.00102545 15.1556C0.00102545 21.4128 0.00794723 23.2425 0.0379416 23.5978C0.141768 24.8483 0.337885 25.6351 0.753192 26.4957C1.54689 28.1431 3.06276 29.3798 4.84858 29.8413C5.46692 30.0005 6.14987 30.0881 7.02663 30.1297C7.3981 30.1458 11.1843 30.1574 14.9728 30.1574C18.7613 30.1574 22.5499 30.1527 22.9121 30.1343C23.9273 30.0865 24.5168 30.0074 25.1686 29.8389C26.0541 29.6119 26.8793 29.1942 27.5867 28.6152C28.294 28.0362 28.8665 27.3097 29.264 26.4865C29.6712 25.6467 29.8777 24.8299 29.9712 23.6447C29.9915 23.3862 30 19.2662 30 15.1516C30 11.0364 29.9908 6.92395 29.9705 6.66554C29.8759 5.46115 29.6694 4.6513 29.249 3.79531C28.9041 3.09459 28.521 2.57131 27.965 2.03625C26.9729 1.08843 25.7593 0.511616 24.3128 0.30304C23.6121 0.201751 23.4725 0.171757 19.8871 0.165527H15.0049Z" fill="url(#paint0_radial_105_331)"/>
<path d="M15.0049 0.165527C8.74253 0.165527 6.91103 0.171988 6.55502 0.201521C5.26988 0.308347 4.47018 0.510693 3.59896 0.944458C2.92755 1.27786 2.39804 1.66432 1.87544 2.20607C0.923698 3.19403 0.346883 4.4095 0.138077 5.8543C0.0365572 6.55571 0.00702432 6.69876 0.00102545 10.2815C-0.00128181 11.4757 0.00102545 13.0474 0.00102545 15.1556C0.00102545 21.4128 0.00794723 23.2425 0.0379416 23.5978C0.141768 24.8483 0.337885 25.6351 0.753192 26.4957C1.54689 28.1431 3.06276 29.3798 4.84858 29.8413C5.46692 30.0005 6.14987 30.0881 7.02663 30.1297C7.3981 30.1458 11.1843 30.1574 14.9728 30.1574C18.7613 30.1574 22.5499 30.1527 22.9121 30.1343C23.9273 30.0865 24.5168 30.0074 25.1686 29.8389C26.0541 29.6119 26.8793 29.1942 27.5867 28.6152C28.294 28.0362 28.8665 27.3097 29.264 26.4865C29.6712 25.6467 29.8777 24.8299 29.9712 23.6447C29.9915 23.3862 30 19.2662 30 15.1516C30 11.0364 29.9908 6.92395 29.9705 6.66554C29.8759 5.46115 29.6694 4.6513 29.249 3.79531C28.9041 3.09459 28.521 2.57131 27.965 2.03625C26.9729 1.08843 25.7593 0.511616 24.3128 0.30304C23.6121 0.201751 23.4725 0.171757 19.8871 0.165527H15.0049Z" fill="url(#paint1_radial_105_331)"/>
<path d="M14.9984 4.0874C11.9906 4.0874 11.6132 4.10055 10.4319 4.15431C9.25285 4.2083 8.44808 4.39496 7.7439 4.66883C7.0155 4.9517 6.39762 5.33009 5.78204 5.9459C5.166 6.56148 4.78761 7.17936 4.50382 7.90753C4.22926 8.61194 4.04237 9.41694 3.9893 10.5955C3.9367 11.7768 3.92285 12.1545 3.92285 15.1622C3.92285 18.17 3.93623 18.5463 3.98976 19.7276C4.04398 20.9066 4.23064 21.7114 4.50428 22.4156C4.78738 23.144 5.16577 23.7619 5.78158 24.3774C6.39692 24.9935 7.01481 25.3728 7.74275 25.6557C8.44739 25.9295 9.25239 26.1162 10.4312 26.1702C11.6125 26.2239 11.9897 26.2371 14.9972 26.2371C18.0052 26.2371 18.3815 26.2239 19.5628 26.1702C20.7418 26.1162 21.5475 25.9295 22.2522 25.6557C22.9803 25.3728 23.5973 24.9935 24.2127 24.3774C24.8287 23.7619 25.2071 23.144 25.4909 22.4158C25.7631 21.7114 25.95 20.9064 26.0054 19.7278C26.0585 18.5465 26.0723 18.17 26.0723 15.1622C26.0723 12.1545 26.0585 11.777 26.0054 10.5957C25.95 9.41671 25.7631 8.61194 25.4909 7.90776C25.2071 7.17936 24.8287 6.56148 24.2127 5.9459C23.5966 5.32986 22.9806 4.95147 22.2515 4.66883C21.5455 4.39496 20.7402 4.2083 19.5612 4.15431C18.3799 4.10055 18.0038 4.0874 14.9952 4.0874H14.9984ZM14.0049 6.08318C14.2997 6.08272 14.6288 6.08318 14.9984 6.08318C17.9554 6.08318 18.3058 6.09379 19.4735 6.14686C20.5533 6.19624 21.1394 6.37666 21.5298 6.52825C22.0466 6.72898 22.4151 6.96894 22.8025 7.35656C23.1901 7.74418 23.43 8.11334 23.6312 8.63016C23.7828 9.02009 23.9635 9.60613 24.0126 10.6859C24.0657 11.8534 24.0772 12.2041 24.0772 15.1597C24.0772 18.1153 24.0657 18.466 24.0126 19.6335C23.9632 20.7133 23.7828 21.2993 23.6312 21.6892C23.4305 22.2061 23.1901 22.5741 22.8025 22.9615C22.4148 23.3491 22.0468 23.589 21.5298 23.7898C21.1398 23.9421 20.5533 24.122 19.4735 24.1714C18.3061 24.2245 17.9554 24.236 14.9984 24.236C12.0412 24.236 11.6907 24.2245 10.5232 24.1714C9.44343 24.1216 8.85739 23.9411 8.46677 23.7895C7.94994 23.5888 7.58078 23.3489 7.19316 22.9612C6.80554 22.5736 6.56559 22.2054 6.36439 21.6883C6.21281 21.2984 6.03215 20.7124 5.983 19.6326C5.92994 18.4651 5.91932 18.1144 5.91932 15.1569C5.91932 12.1995 5.92994 11.8506 5.983 10.6832C6.03238 9.60337 6.21281 9.01732 6.36439 8.62693C6.56512 8.11011 6.80554 7.74095 7.19316 7.35333C7.58078 6.96571 7.94994 6.72575 8.46677 6.52456C8.85715 6.37228 9.44343 6.19231 10.5232 6.14271C11.5449 6.09656 11.9408 6.08272 14.0049 6.08041V6.08318ZM20.91 7.92207C20.6472 7.92207 20.3902 8.00002 20.1717 8.14607C19.9531 8.29212 19.7828 8.49971 19.6822 8.74257C19.5816 8.98544 19.5553 9.25268 19.6066 9.51049C19.6579 9.7683 19.7846 10.0051 19.9705 10.1909C20.1564 10.3768 20.3932 10.5033 20.6511 10.5545C20.9089 10.6058 21.1761 10.5794 21.4189 10.4787C21.6618 10.3781 21.8693 10.2077 22.0153 9.98905C22.1613 9.77044 22.2391 9.51345 22.239 9.25059C22.239 8.51688 21.6438 7.9216 20.91 7.9216V7.92207ZM14.9984 9.47485C11.8575 9.47485 9.31099 12.0214 9.31099 15.1622C9.31099 18.3031 11.8575 20.8485 14.9984 20.8485C18.1393 20.8485 20.6851 18.3031 20.6851 15.1622C20.6851 12.0214 18.139 9.47485 14.9982 9.47485H14.9984ZM14.9984 11.4706C17.0371 11.4706 18.69 13.1233 18.69 15.1622C18.69 17.2009 17.0371 18.8539 14.9984 18.8539C12.9595 18.8539 11.3068 17.2009 11.3068 15.1622C11.3068 13.1233 12.9595 11.4706 14.9984 11.4706Z" fill="white"/>
<defs>
<radialGradient id="paint0_radial_105_331" cx="0" cy="0" r="1" gradientUnits="userSpaceOnUse" gradientTransform="translate(7.96879 32.4674) rotate(-90) scale(29.7241 27.6533)">
<stop stop-color="#FFDD55"/>
<stop offset="0.1" stop-color="#FFDD55"/>
<stop offset="0.5" stop-color="#FF543E"/>
<stop offset="1" stop-color="#C837AB"/>
</radialGradient>
<radialGradient id="paint1_radial_105_331" cx="0" cy="0" r="1" gradientUnits="userSpaceOnUse" gradientTransform="translate(-5.02516 2.32609) rotate(78.6776) scale(13.2869 54.7831)">
<stop stop-color="#3771C8"/>
<stop offset="0.128" stop-color="#3771C8"/>
<stop offset="1" stop-color="#6600FF" stop-opacity="0"/>
</radialGradient>
</defs>
</svg>
