<svg width="30" height="31" viewBox="0 0 30 31" fill="none" xmlns="http://www.w3.org/2000/svg">
<path d="M25.5614 25.723H21.1164V18.7619C21.1164 17.1019 21.0867 14.965 18.8045 14.965C16.4893 14.965 16.1351 16.7736 16.1351 18.641V25.7225H11.69V11.4076H15.9573V13.3639H16.017C16.4441 12.6337 17.0612 12.033 17.8026 11.6258C18.544 11.2186 19.382 11.0202 20.2273 11.0515C24.7326 11.0515 25.5633 14.0149 25.5633 17.8701L25.5614 25.723ZM6.67454 9.45085C6.16436 9.45094 5.6656 9.29974 5.24135 9.01638C4.8171 8.73301 4.4864 8.3302 4.29108 7.85889C4.09576 7.38758 4.04458 6.86893 4.14402 6.36853C4.24347 5.86814 4.48906 5.40847 4.84975 5.04765C5.21044 4.68683 5.67002 4.44107 6.17038 4.34145C6.67074 4.24183 7.18941 4.29282 7.66079 4.48797C8.13217 4.68313 8.5351 5.01368 8.81861 5.43783C9.10213 5.86198 9.25351 6.36068 9.2536 6.87086C9.25366 7.20961 9.187 7.54505 9.05742 7.85804C8.92784 8.17102 8.73789 8.45542 8.4984 8.69499C8.25891 8.93457 7.97458 9.12463 7.66164 9.25431C7.3487 9.384 7.01329 9.45078 6.67454 9.45085ZM8.89707 25.723H4.44738V11.4076H8.89707V25.723ZM27.7775 0.163908H2.21373C1.63351 0.157361 1.07442 0.381436 0.659323 0.786896C0.244226 1.19236 0.00708132 1.74603 0 2.32625V27.996C0.00683896 28.5765 0.243832 29.1306 0.658915 29.5364C1.074 29.9423 1.63322 30.1668 2.21373 30.1607H27.7775C28.3591 30.168 28.9199 29.9441 29.3366 29.5382C29.7534 29.1323 29.9919 28.5777 30 27.996V2.32439C29.9917 1.74302 29.753 1.18872 29.3362 0.783274C28.9195 0.377824 28.3588 0.154389 27.7775 0.162056" fill="#0A66C2"/>
</svg>
