<svg width="133" height="50" viewBox="0 0 133 50" fill="none" xmlns="http://www.w3.org/2000/svg">
<path d="M3.82 39V11H10.3V39H3.82ZM29.585 17.16C31.2917 17.16 32.8117 17.5067 34.145 18.2C35.505 18.8667 36.5717 19.9067 37.345 21.32C38.1183 22.7067 38.505 24.4933 38.505 26.68V39H32.265V27.64C32.265 25.9067 31.8783 24.6267 31.105 23.8C30.3583 22.9733 29.2917 22.56 27.905 22.56C26.9183 22.56 26.025 22.7733 25.225 23.2C24.4517 23.6 23.8383 24.2267 23.385 25.08C22.9583 25.9333 22.745 27.0267 22.745 28.36V39H16.505V17.48H22.465V23.44L21.345 21.64C22.1183 20.2 23.225 19.0933 24.665 18.32C26.105 17.5467 27.745 17.16 29.585 17.16ZM50.4013 39V16.28H41.4413V11H65.8413V16.28H56.8813V39H50.4013ZM68.8878 39V17.48H75.1278V39H68.8878ZM72.0078 14.48C70.8611 14.48 69.9278 14.1467 69.2078 13.48C68.4878 12.8133 68.1278 11.9867 68.1278 11C68.1278 10.0133 68.4878 9.18667 69.2078 8.52C69.9278 7.85333 70.8611 7.52 72.0078 7.52C73.1545 7.52 74.0878 7.84 74.8078 8.48C75.5278 9.09333 75.8878 9.89333 75.8878 10.88C75.8878 11.92 75.5278 12.7867 74.8078 13.48C74.1145 14.1467 73.1811 14.48 72.0078 14.48ZM91.1591 39.32C88.8657 39.32 86.8257 38.84 85.0391 37.88C83.2791 36.92 81.8791 35.6133 80.8391 33.96C79.8257 32.28 79.3191 30.3733 79.3191 28.24C79.3191 26.08 79.8257 24.1733 80.8391 22.52C81.8791 20.84 83.2791 19.5333 85.0391 18.6C86.8257 17.64 88.8657 17.16 91.1591 17.16C93.4257 17.16 95.4524 17.64 97.2391 18.6C99.0257 19.5333 100.426 20.8267 101.439 22.48C102.452 24.1333 102.959 26.0533 102.959 28.24C102.959 30.3733 102.452 32.28 101.439 33.96C100.426 35.6133 99.0257 36.92 97.2391 37.88C95.4524 38.84 93.4257 39.32 91.1591 39.32ZM91.1591 34.2C92.1991 34.2 93.1324 33.96 93.9591 33.48C94.7857 33 95.4391 32.32 95.9191 31.44C96.3991 30.5333 96.6391 29.4667 96.6391 28.24C96.6391 26.9867 96.3991 25.92 95.9191 25.04C95.4391 24.16 94.7857 23.48 93.9591 23C93.1324 22.52 92.1991 22.28 91.1591 22.28C90.1191 22.28 89.1857 22.52 88.3591 23C87.5324 23.48 86.8657 24.16 86.3591 25.04C85.8791 25.92 85.6391 26.9867 85.6391 28.24C85.6391 29.4667 85.8791 30.5333 86.3591 31.44C86.8657 32.32 87.5324 33 88.3591 33.48C89.1857 33.96 90.1191 34.2 91.1591 34.2ZM107.13 39V17.48H113.09V23.56L112.25 21.8C112.89 20.28 113.917 19.1333 115.33 18.36C116.743 17.56 118.463 17.16 120.49 17.16V22.92C120.223 22.8933 119.983 22.88 119.77 22.88C119.557 22.8533 119.33 22.84 119.09 22.84C117.383 22.84 115.997 23.3333 114.93 24.32C113.89 25.28 113.37 26.7867 113.37 28.84V39H107.13ZM126.326 39.32C125.259 39.32 124.339 38.96 123.566 38.24C122.819 37.4933 122.446 36.5467 122.446 35.4C122.446 34.2533 122.819 33.3333 123.566 32.64C124.339 31.92 125.259 31.56 126.326 31.56C127.419 31.56 128.339 31.92 129.086 32.64C129.833 33.3333 130.206 34.2533 130.206 35.4C130.206 36.5467 129.833 37.4933 129.086 38.24C128.339 38.96 127.419 39.32 126.326 39.32Z" fill="white"/>
</svg>
