<svg width="132" height="50" viewBox="0 0 132 50" fill="none" xmlns="http://www.w3.org/2000/svg">
<path d="M3.32 39V11H9.8V39H3.32ZM29.085 17.16C30.7917 17.16 32.3117 17.5067 33.645 18.2C35.005 18.8667 36.0717 19.9067 36.845 21.32C37.6183 22.7067 38.005 24.4933 38.005 26.68V39H31.765V27.64C31.765 25.9067 31.3783 24.6267 30.605 23.8C29.8583 22.9733 28.7917 22.56 27.405 22.56C26.4183 22.56 25.525 22.7733 24.725 23.2C23.9517 23.6 23.3383 24.2267 22.885 25.08C22.4583 25.9333 22.245 27.0267 22.245 28.36V39H16.005V17.48H21.965V23.44L20.845 21.64C21.6183 20.2 22.725 19.0933 24.165 18.32C25.605 17.5467 27.245 17.16 29.085 17.16ZM49.9013 39V16.28H40.9413V11H65.3413V16.28H56.3813V39H49.9013ZM68.3878 39V17.48H74.6278V39H68.3878ZM71.5078 14.48C70.3611 14.48 69.4278 14.1467 68.7078 13.48C67.9878 12.8133 67.6278 11.9867 67.6278 11C67.6278 10.0133 67.9878 9.18667 68.7078 8.52C69.4278 7.85333 70.3611 7.52 71.5078 7.52C72.6545 7.52 73.5878 7.84 74.3078 8.48C75.0278 9.09333 75.3878 9.89333 75.3878 10.88C75.3878 11.92 75.0278 12.7867 74.3078 13.48C73.6145 14.1467 72.6811 14.48 71.5078 14.48ZM90.6591 39.32C88.3657 39.32 86.3257 38.84 84.5391 37.88C82.7791 36.92 81.3791 35.6133 80.3391 33.96C79.3257 32.28 78.8191 30.3733 78.8191 28.24C78.8191 26.08 79.3257 24.1733 80.3391 22.52C81.3791 20.84 82.7791 19.5333 84.5391 18.6C86.3257 17.64 88.3657 17.16 90.6591 17.16C92.9257 17.16 94.9524 17.64 96.7391 18.6C98.5257 19.5333 99.9257 20.8267 100.939 22.48C101.952 24.1333 102.459 26.0533 102.459 28.24C102.459 30.3733 101.952 32.28 100.939 33.96C99.9257 35.6133 98.5257 36.92 96.7391 37.88C94.9524 38.84 92.9257 39.32 90.6591 39.32ZM90.6591 34.2C91.6991 34.2 92.6324 33.96 93.4591 33.48C94.2857 33 94.9391 32.32 95.4191 31.44C95.8991 30.5333 96.1391 29.4667 96.1391 28.24C96.1391 26.9867 95.8991 25.92 95.4191 25.04C94.9391 24.16 94.2857 23.48 93.4591 23C92.6324 22.52 91.6991 22.28 90.6591 22.28C89.6191 22.28 88.6857 22.52 87.8591 23C87.0324 23.48 86.3657 24.16 85.8591 25.04C85.3791 25.92 85.1391 26.9867 85.1391 28.24C85.1391 29.4667 85.3791 30.5333 85.8591 31.44C86.3657 32.32 87.0324 33 87.8591 33.48C88.6857 33.96 89.6191 34.2 90.6591 34.2ZM106.63 39V17.48H112.59V23.56L111.75 21.8C112.39 20.28 113.417 19.1333 114.83 18.36C116.243 17.56 117.963 17.16 119.99 17.16V22.92C119.723 22.8933 119.483 22.88 119.27 22.88C119.057 22.8533 118.83 22.84 118.59 22.84C116.883 22.84 115.497 23.3333 114.43 24.32C113.39 25.28 112.87 26.7867 112.87 28.84V39H106.63ZM125.826 39.32C124.759 39.32 123.839 38.96 123.066 38.24C122.319 37.4933 121.946 36.5467 121.946 35.4C121.946 34.2533 122.319 33.3333 123.066 32.64C123.839 31.92 124.759 31.56 125.826 31.56C126.919 31.56 127.839 31.92 128.586 32.64C129.333 33.3333 129.706 34.2533 129.706 35.4C129.706 36.5467 129.333 37.4933 128.586 38.24C127.839 38.96 126.919 39.32 125.826 39.32Z" fill="#F28F1A"/>
</svg>
