<svg width="15" height="12" viewBox="0 0 15 12" fill="none" xmlns="http://www.w3.org/2000/svg">
<path d="M14.478 2.889C14.478 2.889 11.3504 6.77789 7.50039 6.77789C3.6504 6.77789 0.522789 2.889 0.522789 2.889M2.98889 11.4446H12.0111C12.8823 11.4446 13.3179 11.4446 13.6507 11.275C13.9433 11.1259 14.1813 10.8879 14.3304 10.5952C14.5 10.2625 14.5 9.82685 14.5 8.95566V3.04455C14.5 2.17336 14.5 1.73776 14.3304 1.40501C14.1813 1.11231 13.9433 0.874343 13.6507 0.725212C13.3179 0.555664 12.8823 0.555664 12.0111 0.555664H2.98889C2.1177 0.555664 1.6821 0.555664 1.34935 0.725212C1.05665 0.874343 0.818679 1.11231 0.669548 1.40501C0.5 1.73776 0.5 2.17336 0.5 3.04455V8.95566C0.5 9.82685 0.5 10.2625 0.669548 10.5952C0.818679 10.8879 1.05665 11.1259 1.34935 11.275C1.6821 11.4446 2.11769 11.4446 2.98889 11.4446Z" stroke="white" stroke-linecap="round" stroke-linejoin="round"/>
</svg>
