<svg width="42" height="27" viewBox="0 0 42 27" fill="none" xmlns="http://www.w3.org/2000/svg">
<path d="M15.3955 3.47217H27.3766V24.0112H15.3955V3.47217Z" fill="#FF5F00"/>
<path d="M16.5374 13.7399C16.5359 11.7962 16.9716 9.87758 17.8117 8.12928C18.6517 6.38097 19.874 4.84879 21.3861 3.64869C19.5133 2.1604 17.2642 1.23491 14.8959 0.978018C12.5275 0.72112 10.1355 1.14317 7.99312 2.19594C5.85076 3.24871 4.04453 4.88971 2.78085 6.9314C1.51718 8.9731 0.847046 11.3331 0.847046 13.7417C0.847046 16.1503 1.51718 18.5103 2.78085 20.552C4.04453 22.5937 5.85076 24.2347 7.99312 25.2875C10.1355 26.3402 12.5275 26.7623 14.8959 26.5054C17.2642 26.2485 19.5133 25.323 21.3861 23.8347C19.8735 22.6342 18.6509 21.1015 17.8109 19.3525C16.9708 17.6035 16.5353 15.6842 16.5374 13.7399V13.7399Z" fill="#EB001B"/>
<path d="M41.9252 13.7435C41.9251 16.152 41.2549 18.5119 39.9911 20.5534C38.7273 22.5949 36.921 24.2357 34.7785 25.2882C32.6361 26.3407 30.244 26.7624 27.8758 26.5052C25.5075 26.2479 23.2586 25.3221 21.3861 23.8335C22.8975 22.6325 24.1193 21.1001 24.9595 19.3519C25.7997 17.6037 26.2362 15.6854 26.2362 13.7417C26.2362 11.798 25.7997 9.8797 24.9595 8.13151C24.1193 6.38332 22.8975 4.85091 21.3861 3.64988C23.2586 2.16129 25.5075 1.23545 27.8758 0.978212C30.2441 0.72097 32.6361 1.1427 34.7786 2.1952C36.921 3.2477 38.7273 4.88849 39.9911 6.93002C41.2549 8.97155 41.9251 11.3314 41.9252 13.7399V13.7435Z" fill="#F79E1B"/>
</svg>
