<svg width="77" height="28" viewBox="0 0 77 28" fill="none" xmlns="http://www.w3.org/2000/svg">
<path d="M19.5712 2.50073C19.6659 4.64597 21.5195 12.8326 21.5195 12.8326C22.2006 14.4907 22.7871 12.8326 22.7871 12.8326C25.0296 6.10702 20.4468 2.20958 20.4468 2.20958C19.2769 1.52582 19.5712 2.50073 19.5712 2.50073ZM46.1798 1.33186C46.1798 1.33186 48.4234 2.89128 46.1798 3.18346C46.1798 3.18346 37.7967 4.15779 31.5591 10.0077C31.5591 10.0077 22.2006 18.1925 18.6926 27.1606C18.6926 27.1606 17.5227 27.1606 17.9141 25.4067C18.3036 23.6525 20.6418 15.9517 31.0703 6.4986C31.0703 6.4986 41.1129 -2.66439 46.1798 1.33186Z" fill="#FF4600"/>
<path d="M3.53285 14.308C3.90317 14.386 4.23566 14.4242 4.724 14.4242C6.636 14.4242 7.92435 13.1944 7.92435 11.6325C7.92435 10.2273 6.9292 9.72047 5.64203 9.72047C5.07467 9.72047 4.64527 9.75976 4.3723 9.83687L3.53285 14.308ZM2.45927 8.21705C3.25972 8.02104 4.45087 7.90479 5.6218 7.90479C6.85224 7.90479 8.14044 8.15753 8.99895 8.84173C9.76026 9.42726 10.2092 10.2847 10.2092 11.4577C10.2092 13.0186 9.46705 14.2888 8.52996 15.0299C7.47647 15.8693 5.97188 16.2794 4.41041 16.2794C3.94143 16.2794 3.53285 16.22 3.18114 16.1817L2.22441 21.1601H0L2.45927 8.21705ZM16.2398 13.2916C16.006 13.2321 15.7138 13.1944 15.3036 13.1944C13.2148 13.1944 11.5748 15.5573 11.5748 17.7244C11.5748 18.7184 11.9457 19.5392 12.9417 19.5392C14.0144 19.5392 15.3036 18.2126 15.7527 15.7912L16.2398 13.2916ZM15.3228 21.1601C15.3228 20.5927 15.4005 19.8324 15.4795 19.0308H15.4403C14.5035 20.7695 13.2339 21.3741 12.0237 21.3741C10.3259 21.3741 9.21182 20.0465 9.21182 18.134C9.21182 14.8934 11.4765 11.4375 15.9082 11.4375C16.9426 11.4375 18.0557 11.6325 18.7978 11.8667L17.8023 16.8255C17.5282 18.2306 17.3725 20.0273 17.4118 21.1601H15.3228ZM31.7176 17.3919C31.7176 18.6985 32.4008 19.6185 33.5721 19.6185C35.2705 19.6185 36.4032 17.2746 36.4032 15.3811C36.4032 14.4042 35.9533 13.1939 34.588 13.1939C32.7721 13.1939 31.7175 15.6155 31.7175 17.3919H31.7176ZM38.7456 15.3625C38.7456 18.6021 36.5 21.3738 33.2603 21.3738C30.8579 21.3738 29.3758 19.7147 29.3758 17.4494C29.3758 14.2294 31.6203 11.4376 34.8609 11.4376C37.418 11.4376 38.7455 13.2727 38.7455 15.3625H38.7456ZM39.1731 21.1601L40.4036 14.6C40.6372 13.4675 40.7739 12.4719 40.8912 11.6527H42.9228L42.7076 13.3511H42.7458C43.6236 12.0815 44.8348 11.4375 46.1624 11.4375C47.5282 11.4375 48.5829 12.2583 48.5829 14.0539C48.5829 14.4827 48.5062 15.1461 48.408 15.6152L47.3715 21.1601H45.0878L46.102 15.7912C46.1626 15.4401 46.2205 15.0299 46.2205 14.6585C46.2205 13.8581 45.9277 13.2916 45.0299 13.2916C43.9955 13.2916 42.6674 14.5406 42.2577 16.7675L41.4381 21.1601H39.1731ZM54.6323 13.1359C53.2064 13.1359 52.2704 14.4046 51.9972 15.5573C54.3391 15.5764 55.8435 15.2641 55.8435 14.1128C55.8435 13.5077 55.3553 13.1359 54.6323 13.1359ZM56.7992 20.6128C55.8617 21.1006 54.594 21.3741 53.4413 21.3741C50.8083 21.3741 49.5386 19.7547 49.5386 17.4311C49.5386 14.5612 51.6455 11.4379 54.9255 11.4379C56.7992 11.4379 57.9904 12.5111 57.9904 14.1128C57.9904 16.5523 55.4339 17.3328 51.764 17.2553C51.7241 17.5866 51.8023 18.2306 52.0175 18.602C52.3887 19.247 53.0699 19.5784 53.9692 19.5784C55.0439 19.5784 55.9014 19.3048 56.5867 18.9537L56.7992 20.6128ZM63.4738 13.1359C62.0495 13.1359 61.112 14.4046 60.8387 15.5573C63.1806 15.5764 64.6852 15.2641 64.6852 14.1128C64.6852 13.5077 64.197 13.1359 63.4738 13.1359ZM65.6409 20.6128C64.7048 21.1006 63.4355 21.3741 62.2848 21.3741C59.6498 21.3741 58.3801 19.7547 58.3801 17.4311C58.3801 14.5612 60.4872 11.4379 63.7671 11.4379C65.6407 11.4379 66.8341 12.5111 66.8341 14.1128C66.8341 16.5523 64.2756 17.3328 60.6055 17.2553C60.5652 17.5866 60.6438 18.2306 60.859 18.602C61.2303 19.247 61.913 19.5784 62.8108 19.5784C63.8854 19.5784 64.7431 19.3048 65.4283 18.9537L65.6409 20.6128ZM66.9687 21.1601L68.0811 15.303C68.3346 13.9561 68.471 12.492 68.5672 11.6526H70.5398C70.4814 12.2966 70.4235 12.9601 70.3251 13.6443H70.383C71.0302 12.3747 72.0624 11.4375 73.3518 11.4375C73.5286 11.4375 73.7035 11.4577 73.8602 11.4577L73.4101 13.6832C73.2933 13.6629 73.1371 13.6629 72.9804 13.6629C71.359 13.6629 70.3251 15.303 69.9554 17.3328L69.2324 21.1601H66.9687ZM75.5872 12.5224H75.7539C75.9245 12.5224 76.0372 12.4271 76.0372 12.2834C76.0372 12.1215 75.9188 12.0506 75.7481 12.0506C75.6696 12.0506 75.6137 12.0563 75.5873 12.0625L75.5872 12.5224ZM75.4244 11.9487C75.5273 11.9315 75.6314 11.9229 75.7357 11.9229C75.9085 11.9229 76.0233 11.9581 76.0993 12.0262C76.1618 12.0817 76.1981 12.168 76.1981 12.2673C76.1981 12.4307 76.0952 12.5414 75.9628 12.5854V12.5915C76.0589 12.6247 76.1152 12.7151 76.1475 12.8455C76.1878 13.0193 76.2179 13.1419 76.2441 13.191H76.0755C76.0553 13.1527 76.0268 13.0468 75.9949 12.89C75.9566 12.7162 75.8867 12.6521 75.7398 12.6459H75.5873V13.191H75.4244V11.9487Z" fill="white"/>
<path d="M75.7967 11.438C75.4985 11.4382 75.2125 11.5568 75.0016 11.7677C74.7906 11.9786 74.6721 12.2646 74.6719 12.5629C74.6719 13.1834 75.1762 13.6882 75.7967 13.6882C76.4173 13.6882 76.9216 13.1834 76.9216 12.5629C76.9214 12.2646 76.8029 11.9786 76.5919 11.7677C76.381 11.5568 76.095 11.4382 75.7967 11.438ZM75.7967 11.6117C75.9216 11.6117 76.0452 11.6363 76.1606 11.6841C76.2759 11.732 76.3807 11.802 76.4689 11.8904C76.5571 11.9787 76.6271 12.0836 76.6748 12.199C76.7224 12.3144 76.7469 12.438 76.7467 12.5629C76.7467 13.0889 76.3211 13.5149 75.7967 13.5149C75.6717 13.5149 75.5479 13.4903 75.4324 13.4425C75.3169 13.3946 75.2119 13.3245 75.1235 13.2361C75.035 13.1477 74.9649 13.0428 74.9171 12.9272C74.8692 12.8117 74.8446 12.6879 74.8446 12.5629C74.8445 12.4379 74.8691 12.3141 74.917 12.1986C74.9648 12.0831 75.0349 11.9782 75.1234 11.8898C75.2118 11.8015 75.3168 11.7314 75.4324 11.6837C75.5479 11.636 75.6717 11.6115 75.7967 11.6117Z" fill="white"/>
</svg>
