<svg width="78" height="20" viewBox="0 0 78 20" fill="none" xmlns="http://www.w3.org/2000/svg">
<path d="M29.686 4.55029H25.4292C25.2883 4.5502 25.152 4.60045 25.0448 4.69197C24.9377 4.78349 24.8667 4.91028 24.8448 5.04948L23.1231 15.965C23.1152 16.0156 23.1184 16.0674 23.1324 16.1167C23.1464 16.166 23.1709 16.2117 23.2043 16.2506C23.2377 16.2895 23.2791 16.3208 23.3257 16.3422C23.3723 16.3636 23.4229 16.3746 23.4742 16.3745H25.5064C25.6474 16.3746 25.7838 16.3243 25.891 16.2326C25.9982 16.141 26.0691 16.014 26.0909 15.8747L26.5552 12.9306C26.577 12.7914 26.6478 12.6646 26.7548 12.5729C26.8619 12.4813 26.9981 12.4309 27.139 12.4308H28.4866C31.2906 12.4308 32.9089 11.0739 33.3315 8.38506C33.522 7.20867 33.3396 6.28437 32.7888 5.63705C32.1838 4.92624 31.1107 4.55029 29.686 4.55029ZM30.1771 8.53693C29.9443 10.0644 28.7773 10.0644 27.6488 10.0644H27.0065L27.4571 7.21179C27.4703 7.12833 27.5128 7.05232 27.5771 6.99744C27.6413 6.94256 27.723 6.9124 27.8075 6.9124H28.1019C28.8706 6.9124 29.5958 6.9124 29.9705 7.35059C30.1939 7.61201 30.2624 8.0004 30.1771 8.53693ZM42.4102 8.48776H40.3718C40.2873 8.48776 40.2056 8.51792 40.1414 8.5728C40.0771 8.62768 40.0346 8.70369 40.0214 8.78715L39.9311 9.35729L39.7886 9.15064C39.3473 8.51017 38.3632 8.29605 37.381 8.29605C35.1285 8.29605 33.2046 10.0021 32.8299 12.3954C32.6351 13.5892 32.912 14.7307 33.5892 15.5268C34.2104 16.2587 35.0992 16.5637 36.1567 16.5637C37.9717 16.5637 38.9782 15.3967 38.9782 15.3967L38.8873 15.9631C38.8792 16.0137 38.8822 16.0655 38.896 16.1149C38.9099 16.1643 38.9343 16.2101 38.9675 16.2491C39.0008 16.2882 39.0421 16.3195 39.0886 16.3411C39.1352 16.3626 39.1858 16.3738 39.2371 16.3739H41.0733C41.2143 16.374 41.3507 16.3236 41.4579 16.232C41.565 16.1403 41.6359 16.0134 41.6577 15.8741L42.7594 8.89732C42.7675 8.84679 42.7646 8.7951 42.7508 8.74583C42.7369 8.69655 42.7126 8.65087 42.6794 8.61193C42.6462 8.57298 42.6049 8.54171 42.5585 8.52028C42.512 8.49884 42.4614 8.48774 42.4102 8.48776ZM39.5689 12.4551C39.3722 13.6197 38.4479 14.4014 37.269 14.4014C36.6771 14.4014 36.204 14.2116 35.9003 13.8518C35.599 13.4946 35.4845 12.986 35.5804 12.4196C35.764 11.265 36.7039 10.4577 37.8647 10.4577C38.4435 10.4577 38.9141 10.6501 39.2241 11.0129C39.5346 11.3796 39.6579 11.8912 39.5689 12.4551ZM53.2666 8.48776H51.2182C51.1216 8.48791 51.0265 8.51163 50.9411 8.55686C50.8558 8.60209 50.7827 8.66747 50.7283 8.74731L47.9031 12.9089L46.7056 8.90976C46.6688 8.78779 46.5938 8.6809 46.4916 8.60489C46.3893 8.52889 46.2653 8.48782 46.1379 8.48776H44.125C44.0685 8.48761 44.0128 8.50096 43.9625 8.52669C43.9122 8.55243 43.8688 8.5898 43.8358 8.63571C43.8029 8.68162 43.7814 8.73474 43.7731 8.79063C43.7649 8.84653 43.7701 8.90359 43.7883 8.95707L46.0446 15.5784L43.9234 18.5729C43.8857 18.626 43.8633 18.6885 43.8587 18.7534C43.8542 18.8184 43.8676 18.8833 43.8974 18.9412C43.9273 18.999 43.9726 19.0475 44.0282 19.0814C44.0838 19.1152 44.1477 19.1331 44.2128 19.1331H46.2587C46.3542 19.1332 46.4484 19.1102 46.533 19.066C46.6177 19.0217 46.6904 18.9576 46.7448 18.8792L53.5579 9.04483C53.5948 8.99163 53.6165 8.92933 53.6205 8.86469C53.6246 8.80005 53.6108 8.73554 53.5808 8.67814C53.5508 8.62075 53.5057 8.57267 53.4503 8.53911C53.3949 8.50555 53.3314 8.48779 53.2666 8.48776Z" fill="#4D69C1"/>
<path d="M60.0494 4.55092H55.792C55.6512 4.55097 55.515 4.60129 55.408 4.69279C55.301 4.7843 55.2301 4.911 55.2082 5.0501L53.4865 15.9656C53.4785 16.0161 53.4816 16.0678 53.4955 16.1171C53.5094 16.1664 53.5338 16.2121 53.567 16.251C53.6003 16.2899 53.6416 16.3212 53.6881 16.3426C53.7346 16.364 53.7851 16.3751 53.8363 16.3751H56.0211C56.1196 16.375 56.2149 16.3397 56.2897 16.2755C56.3646 16.2114 56.4141 16.1227 56.4294 16.0253L56.918 12.9312C56.9398 12.792 57.0106 12.6652 57.1176 12.5736C57.2247 12.4819 57.3609 12.4315 57.5018 12.4314H58.8488C61.6534 12.4314 63.2711 11.0746 63.6943 8.38568C63.8854 7.20929 63.7018 6.28499 63.151 5.63767C62.5466 4.92686 61.4741 4.55092 60.0494 4.55092ZM60.5405 8.53755C60.3083 10.065 59.1413 10.065 58.0122 10.065H57.3705L57.8217 7.21241C57.8347 7.12895 57.8771 7.05288 57.9412 6.99796C58.0054 6.94305 58.0871 6.91291 58.1715 6.91302H58.466C59.234 6.91302 59.9598 6.91302 60.3345 7.35121C60.5579 7.61262 60.6258 8.00102 60.5405 8.53755ZM72.7731 8.48838H70.7359C70.6514 8.48814 70.5696 8.51823 70.5054 8.57317C70.4412 8.62811 70.3989 8.70425 70.3861 8.78776L70.2958 9.35791L70.1527 9.15126C69.7114 8.51078 68.7279 8.29667 67.7457 8.29667C65.4932 8.29667 63.5699 10.0027 63.1952 12.396C63.001 13.5898 63.2767 14.7313 63.9539 15.5274C64.5763 16.2594 65.4639 16.5643 66.5214 16.5643C68.3364 16.5643 69.3429 15.3973 69.3429 15.3973L69.252 15.9637C69.2439 16.0144 69.2469 16.0663 69.2608 16.1158C69.2747 16.1653 69.2992 16.2111 69.3326 16.2502C69.366 16.2893 69.4075 16.3206 69.4542 16.3421C69.5009 16.3635 69.5517 16.3746 69.6031 16.3745H71.4386C71.5795 16.3744 71.7157 16.324 71.8228 16.2324C71.9298 16.1408 72.0006 16.0139 72.0224 15.8747L73.1247 8.89793C73.1326 8.84725 73.1293 8.79547 73.1152 8.74615C73.1011 8.69684 73.0765 8.65116 73.0431 8.61225C73.0097 8.57334 72.9683 8.54212 72.9217 8.52074C72.875 8.49936 72.8244 8.48832 72.7731 8.48838ZM69.9317 12.4557C69.7363 13.6203 68.8107 14.402 67.6318 14.402C67.0411 14.402 66.5668 14.2122 66.2631 13.8524C65.9619 13.4952 65.8486 12.9866 65.9432 12.4202C66.128 11.2656 67.0667 10.4584 68.2275 10.4584C68.8063 10.4584 69.2769 10.6507 69.5869 11.0136C69.8987 11.3802 70.0219 11.8918 69.9317 12.4557ZM75.1763 4.8503L73.4291 15.9656C73.4211 16.0161 73.4242 16.0678 73.4381 16.1171C73.452 16.1664 73.4764 16.2121 73.5096 16.251C73.5429 16.2899 73.5842 16.3212 73.6306 16.3426C73.6771 16.364 73.7277 16.3751 73.7789 16.3751H75.5354C75.8273 16.3751 76.0751 16.1635 76.1199 15.8753L77.8427 4.96047C77.8507 4.90988 77.8477 4.85815 77.8338 4.80885C77.8199 4.75954 77.7955 4.71384 77.7623 4.67486C77.729 4.63589 77.6877 4.60457 77.6413 4.58307C77.5948 4.56156 77.5442 4.55038 77.4929 4.55029H75.5261C75.4416 4.55059 75.3601 4.58095 75.296 4.63592C75.2319 4.69089 75.1894 4.76689 75.1763 4.8503Z" fill="#179BD7"/>
<path d="M5.4459 18.4956L5.77143 16.4279L5.0463 16.4111H1.58374L3.99004 1.15363C3.99721 1.10701 4.02089 1.06452 4.05676 1.0339C4.09264 1.00328 4.13832 0.98657 4.18549 0.986819H10.0239C11.9621 0.986819 13.2997 1.39015 13.9981 2.18623C14.3254 2.55969 14.534 2.94995 14.6348 3.37942C14.7406 3.83006 14.7425 4.36845 14.6392 5.02511L14.6317 5.07304V5.4938L14.9591 5.67928C15.209 5.80591 15.4337 5.9772 15.622 6.18469C15.9021 6.50399 16.0832 6.90981 16.1597 7.39095C16.2388 7.88578 16.2126 8.47459 16.0832 9.14121C15.9338 9.90804 15.6923 10.5759 15.3661 11.1224C15.0784 11.612 14.6915 12.036 14.2302 12.3672C13.797 12.6747 13.2823 12.9081 12.7003 13.0575C12.1364 13.2044 11.4934 13.2785 10.7882 13.2785H10.3338C10.0089 13.2785 9.69335 13.3955 9.44562 13.6052C9.19824 13.8172 9.03414 14.1101 8.98253 14.4318L8.9483 14.6179L8.37318 18.2622L8.34703 18.396C8.34019 18.4384 8.32836 18.4595 8.31093 18.4738C8.29405 18.4877 8.27299 18.4953 8.25118 18.4956H5.4459Z" fill="#253B80"/>
<path d="M15.269 5.12256C15.2516 5.23397 15.2317 5.34788 15.2093 5.46489C14.4393 9.41793 11.8052 10.7835 8.44102 10.7835H6.7281C6.31668 10.7835 5.96998 11.0823 5.90587 11.4881L5.02888 17.0501L4.78053 18.6267C4.77064 18.6893 4.77441 18.7532 4.7916 18.8141C4.80879 18.8751 4.83898 18.9316 4.88009 18.9797C4.9212 19.0279 4.97226 19.0665 5.02975 19.0931C5.08724 19.1196 5.1498 19.1334 5.21311 19.1334H8.25118C8.61094 19.1334 8.91655 18.872 8.97319 18.5172L9.00307 18.3628L9.57508 14.7328L9.6118 14.5337C9.66782 14.1776 9.97405 13.9162 10.3338 13.9162H10.7882C13.7316 13.9162 16.0359 12.7211 16.7093 9.26294C16.9907 7.81829 16.845 6.61203 16.1006 5.76366C15.8646 5.50122 15.5829 5.28397 15.269 5.12256Z" fill="#179BD7"/>
<path d="M14.4637 4.8005C14.2179 4.72939 13.9678 4.67388 13.715 4.63432C13.2154 4.55754 12.7104 4.5207 12.205 4.52415H7.62888C7.45473 4.52401 7.28628 4.58619 7.15397 4.69943C7.02166 4.81267 6.93424 4.96951 6.90749 5.14159L5.93402 11.3073L5.90601 11.4872C5.93633 11.2909 6.03591 11.112 6.18672 10.9828C6.33753 10.8535 6.52962 10.7825 6.72823 10.7826H8.44115C11.8054 10.7826 14.4395 9.41641 15.2094 5.46401C15.2324 5.34699 15.2517 5.23309 15.2692 5.12168C15.066 5.01513 14.8542 4.92581 14.6362 4.85466C14.579 4.83568 14.5215 4.81763 14.4637 4.8005Z" fill="#222D65"/>
<path d="M6.90557 5.14215C6.93209 4.97001 7.01947 4.8131 7.15185 4.69992C7.28422 4.58673 7.4528 4.52478 7.62696 4.52532H12.203C12.7452 4.52532 13.2512 4.5608 13.713 4.63549C14.0256 4.68461 14.3338 4.75807 14.6348 4.85521C14.862 4.93052 15.073 5.01953 15.2679 5.12223C15.4969 3.6614 15.266 2.66676 14.4761 1.76611C13.6054 0.774591 12.0337 0.350098 10.0227 0.350098H4.18433C3.77353 0.350098 3.4231 0.648862 3.35961 1.05531L0.927799 16.4697C0.916472 16.5412 0.920781 16.6144 0.940431 16.6841C0.960081 16.7539 0.994604 16.8185 1.04163 16.8737C1.08865 16.9288 1.14705 16.9731 1.21282 17.0035C1.2786 17.0339 1.35017 17.0497 1.42263 17.0498H5.02709L5.9321 11.3079L6.90557 5.14215Z" fill="#4D69C1"/>
</svg>
