<svg width="30" height="31" viewBox="0 0 30 31" fill="none" xmlns="http://www.w3.org/2000/svg">
<path d="M8.7 17.5614C13.5049 17.5614 17.4 13.6663 17.4 8.86138C17.4 4.0565 13.5049 0.161377 8.7 0.161377C3.89512 0.161377 0 4.0565 0 8.86138C0 13.6663 3.89512 17.5614 8.7 17.5614Z" fill="#28A8EA"/>
<path d="M21.3 30.1615C26.1049 30.1615 30 26.2664 30 21.4615C30 16.6566 26.1049 12.7615 21.3 12.7615C16.4951 12.7615 12.6 16.6566 12.6 21.4615C12.6 26.2664 16.4951 30.1615 21.3 30.1615Z" fill="#28A8EA"/>
<path d="M15 29.5615C22.9529 29.5615 29.4 23.1144 29.4 15.1615C29.4 7.20857 22.9529 0.761475 15 0.761475C7.04707 0.761475 0.599976 7.20857 0.599976 15.1615C0.599976 23.1144 7.04707 29.5615 15 29.5615Z" fill="#28A8EA"/>
<path fill-rule="evenodd" clip-rule="evenodd" d="M11.2655 14.8881C10.7026 14.5172 10.2329 14.0213 9.89317 13.4391C9.56493 12.8243 9.40288 12.1344 9.42307 11.4378C9.39809 10.5536 9.69976 9.69129 10.2704 9.01553C10.8634 8.3369 11.6255 7.82748 12.4793 7.53911C13.4081 7.21114 14.3867 7.04651 15.3716 7.05251C16.0162 7.04639 16.6601 7.09577 17.2963 7.20011C17.7513 7.27044 18.1982 7.38583 18.6304 7.54457C19.0274 7.67904 19.3858 7.90796 19.6747 8.21165C19.8877 8.46142 20.0024 8.78022 19.9973 9.10841C20.005 9.2789 19.979 9.44924 19.9208 9.60968C19.8627 9.77013 19.7734 9.91755 19.6583 10.0435C19.5492 10.1596 19.4169 10.2513 19.2698 10.3125C19.1228 10.3738 18.9645 10.4032 18.8053 10.3989C18.5862 10.3973 18.37 10.3488 18.1711 10.2567C17.6816 10.0376 17.1773 9.85305 16.662 9.70445C16.1875 9.57944 15.6983 9.51876 15.2077 9.52403C14.5686 9.50033 13.9364 9.66172 13.3869 9.98879C13.1548 10.1297 12.9649 10.3305 12.837 10.57C12.709 10.8095 12.6478 11.079 12.6598 11.3503C12.6563 11.7062 12.7916 12.0494 13.037 12.3072C13.3287 12.6097 13.6734 12.8561 14.054 13.0344C14.4805 13.246 15.1166 13.5267 15.9622 13.8765C16.0559 13.9062 16.1473 13.9427 16.2356 13.9859C17.0607 14.3122 17.8519 14.7188 18.5975 15.1997C19.1866 15.5838 19.6833 16.0936 20.0519 16.6925C20.4147 17.3217 20.5964 18.0389 20.5768 18.7649C20.6073 19.6541 20.3525 20.5297 19.8496 21.2637C19.3376 21.9586 18.6292 22.4842 17.8157 22.7729C16.8356 23.1229 15.7999 23.2916 14.7593 23.2705C13.3294 23.3208 11.9061 23.0519 10.5931 22.4831C10.2571 22.3337 9.96252 22.1047 9.73471 21.816C9.54587 21.5517 9.44801 21.2331 9.45583 20.9083C9.44641 20.737 9.47428 20.5656 9.5375 20.4061C9.60073 20.2465 9.69782 20.1026 9.82207 19.9842C10.0829 19.7558 10.4215 19.6364 10.768 19.6506C11.1535 19.656 11.5322 19.7535 11.8724 19.935C12.2951 20.1466 12.6286 20.3052 12.873 20.4108C13.1522 20.5278 13.4413 20.6193 13.7369 20.6842C14.1013 20.7642 14.4736 20.8027 14.8467 20.7989C15.5063 20.8459 16.1627 20.6708 16.7112 20.3015C16.9166 20.1408 17.0808 19.9334 17.1901 19.6967C17.2994 19.4599 17.3508 19.2005 17.3399 18.9399C17.3408 18.57 17.1999 18.2139 16.9463 17.9447C16.6113 17.5995 16.2192 17.3146 15.7873 17.1027C15.2769 16.833 14.5588 16.5049 13.633 16.1184C12.8047 15.7884 12.0116 15.3763 11.2655 14.8881" fill="white"/>
<path opacity="0.1" fill-rule="evenodd" clip-rule="evenodd" d="M11.4179 0.599316C11.0375 0.471946 10.6485 0.371695 10.2539 0.299316C7.88486 1.05961 5.73128 2.37397 3.97194 4.13332C2.2126 5.89266 0.898235 8.04624 0.137939 10.4153C0.21033 10.8099 0.310581 11.1989 0.437939 11.5793C0.544306 11.9237 0.678757 12.2589 0.839939 12.5813C1.36112 9.70149 2.74926 7.04948 4.81869 4.98006C6.88811 2.91064 9.54012 1.52249 12.4199 1.00132C12.0975 0.840153 11.7624 0.705703 11.4179 0.599316Z" fill="black"/>
<path opacity="0.1" fill-rule="evenodd" clip-rule="evenodd" d="M11.4179 0.599365C8.76063 1.25475 6.33313 2.62412 4.39787 4.55937C2.46262 6.49463 1.09325 8.92213 0.437866 11.5794C0.544233 11.9238 0.678684 12.2589 0.839866 12.5814C1.36104 9.70154 2.74919 7.04953 4.81861 4.98011C6.88803 2.91069 9.54004 1.52254 12.4199 1.00137C12.0974 0.840202 11.7623 0.705752 11.4179 0.599365ZM29.5619 18.7434C29.4555 18.3989 29.321 18.0638 29.1599 17.7414C28.6387 20.6212 27.2505 23.2732 25.1811 25.3426C23.1117 27.412 20.4597 28.8002 17.5799 29.3214C17.9023 29.4825 18.2374 29.617 18.5819 29.7234C18.9623 29.8507 19.3513 29.951 19.7459 30.0234C22.1149 29.2631 24.2685 27.9487 26.0279 26.1894C27.7872 24.43 29.1016 22.2764 29.8619 19.9074C29.7895 19.5128 29.6892 19.1238 29.5619 18.7434Z" fill="black"/>
<path opacity="0.1" fill-rule="evenodd" clip-rule="evenodd" d="M29.16 17.7415C28.6388 20.6213 27.2506 23.2733 25.1812 25.3427C23.1118 27.4121 20.4598 28.8003 17.58 29.3215C17.9024 29.4826 18.2375 29.6171 18.582 29.7235C21.2392 29.0681 23.6667 27.6987 25.602 25.7635C27.5372 23.8282 28.9066 21.4007 29.562 18.7435C29.4556 18.399 29.3211 18.0639 29.16 17.7415Z" fill="black"/>
</svg>
