<svg width="15" height="16" viewBox="0 0 15 16" fill="none" xmlns="http://www.w3.org/2000/svg">
<path d="M0.5 2.94444C0.5 9.60253 5.89746 15 12.5556 15C12.8559 15 13.1537 14.989 13.4487 14.9674C13.7871 14.9426 13.9563 14.9302 14.1103 14.8416C14.2379 14.7681 14.3588 14.6379 14.4228 14.5053C14.5 14.3453 14.5 14.1585 14.5 13.7851V11.5939C14.5 11.2798 14.5 11.1228 14.4483 10.9882C14.4027 10.8693 14.3285 10.7634 14.2324 10.6799C14.1236 10.5853 13.9759 10.5317 13.6808 10.4243L11.1867 9.51737C10.8433 9.39253 10.6715 9.33008 10.5087 9.34066C10.365 9.34999 10.2268 9.39907 10.1094 9.48229C9.97621 9.57663 9.88226 9.73328 9.69427 10.0466L9.05556 11.1111C6.99452 10.1777 5.3237 8.5047 4.38889 6.44444L5.45338 5.80575C5.76668 5.61777 5.92334 5.52377 6.01771 5.3906C6.10093 5.27317 6.15001 5.13495 6.15934 4.99132C6.16992 4.82843 6.10747 4.65675 5.98263 4.31337L5.07566 1.81916C4.96833 1.52404 4.91467 1.37647 4.8201 1.26763C4.73656 1.17149 4.63069 1.09734 4.51179 1.05168C4.37719 1 4.22017 1 3.90614 1H1.7149C1.34146 1 1.15474 1 0.994651 1.07719C0.862055 1.14114 0.731887 1.26212 0.658433 1.38969C0.569751 1.54372 0.557361 1.71293 0.532581 2.05135C0.51099 2.34622 0.5 2.64405 0.5 2.94444Z" stroke="white" stroke-linecap="round" stroke-linejoin="round"/>
</svg>
