<svg width="21" height="20" viewBox="0 0 21 20" fill="none" xmlns="http://www.w3.org/2000/svg">
<g clip-path="url(#clip0_119_81)">
<path d="M13 5.83334H15.5C16.0472 5.83334 16.589 5.94111 17.0946 6.1505C17.6001 6.3599 18.0594 6.66681 18.4463 7.05372C18.8332 7.44063 19.1401 7.89996 19.3495 8.40549C19.5589 8.91101 19.6667 9.45283 19.6667 10C19.6667 10.5472 19.5589 11.089 19.3495 11.5945C19.1401 12.1 18.8332 12.5594 18.4463 12.9463C18.0594 13.3332 17.6001 13.6401 17.0946 13.8495C16.589 14.0589 16.0472 14.1667 15.5 14.1667H13M8.00004 14.1667H5.50004C4.95287 14.1667 4.41105 14.0589 3.90553 13.8495C3.4 13.6401 2.94067 13.3332 2.55376 12.9463C1.77236 12.1649 1.33337 11.1051 1.33337 10C1.33337 8.89493 1.77236 7.83513 2.55376 7.05372C3.33516 6.27232 4.39497 5.83334 5.50004 5.83334H8.00004" stroke="#8314E2" stroke-width="1.5" stroke-linecap="round" stroke-linejoin="round"/>
<path d="M7.16663 10H13.8333" stroke="#8314E2" stroke-width="1.5" stroke-linecap="round" stroke-linejoin="round"/>
</g>
<defs>
<clipPath id="clip0_119_81">
<rect width="20" height="20" fill="white" transform="translate(0.5)"/>
</clipPath>
</defs>
</svg>
