<svg width="74" height="31" viewBox="0 0 74 31" fill="none" xmlns="http://www.w3.org/2000/svg">
<g filter="url(#filter0_f_105_336)">
<g filter="url(#filter1_d_105_336)">
<path d="M22.1254 15.0793C22.1245 17.7181 22.8121 20.294 24.1192 22.5646L22 30.3228L29.9185 28.2409C32.1002 29.4339 34.5566 30.0626 37.0563 30.0635H37.0628C45.2951 30.0635 51.9965 23.3462 52 15.0914C52.0013 11.0907 50.449 7.32891 47.629 4.49898C44.8086 1.6691 41.0583 0.109854 37.0628 0.108084C28.8292 0.108084 22.1287 6.82433 22.1254 15.0793Z" fill="black"/>
</g>
<path d="M22.1254 15.0793C22.1245 17.7181 22.8121 20.294 24.1192 22.5646L22 30.3228L29.9185 28.2409C32.1002 29.4339 34.5566 30.0626 37.0563 30.0635H37.0628C45.2951 30.0635 51.9965 23.3462 52 15.0914C52.0013 11.0907 50.449 7.32891 47.629 4.49898C44.8086 1.6691 41.0583 0.109854 37.0628 0.108084C28.8292 0.108084 22.1287 6.82433 22.1254 15.0793Z" fill="black" fill-opacity="0.2"/>
</g>
<path d="M22.6614 14.9234C22.6607 17.4614 23.3238 19.9395 24.5848 22.1238L22.5408 29.5872L30.1784 27.5845C32.2826 28.7314 34.6518 29.3366 37.0629 29.3374H37.0694C45.0094 29.3374 51.4729 22.8761 51.4762 14.9347C51.4778 11.0863 49.9805 7.46782 47.2601 4.74549C44.5403 2.02317 40.9229 0.523167 37.0688 0.52145C29.1278 0.52145 22.6646 6.98224 22.6614 14.9235" fill="url(#paint0_linear_105_336)"/>
<path d="M22.147 14.9185C22.1461 17.548 22.8331 20.1148 24.139 22.3774L22.0217 30.1082L29.9333 28.0337C32.1131 29.2224 34.5673 29.8489 37.0649 29.8499H37.0713C45.2964 29.8499 51.9919 23.1563 51.9954 14.9307C51.9968 10.944 50.4458 7.19551 47.6283 4.37551C44.8104 1.55561 41.0634 0.0019474 37.0713 0.00012207C28.8449 0.00012207 22.1503 6.69265 22.147 14.9185H22.147ZM26.8584 21.9878L26.5631 21.5188C25.3214 19.5443 24.6658 17.2626 24.6669 14.9196C24.6695 8.08241 30.2338 2.52007 37.076 2.52007C40.3895 2.52141 43.5035 3.81291 45.8458 6.15672C48.1877 8.50037 49.4765 11.6161 49.4755 14.9297C49.4726 21.767 43.9082 27.3302 37.0714 27.3302H37.0665C34.8403 27.329 32.6571 26.7313 30.753 25.6013L30.2999 25.3328L25.605 26.5636L26.8584 21.9878Z" fill="url(#paint1_linear_105_336)"/>
<path fill-rule="evenodd" clip-rule="evenodd" d="M33.3413 8.68184C33.0619 8.06091 32.7679 8.0484 32.5021 8.03751C32.2848 8.02823 32.0359 8.02882 31.7875 8.02882C31.5389 8.02882 31.1349 8.1222 30.7932 8.49535C30.4514 8.86849 29.4879 9.77053 29.4879 11.6052C29.4879 13.4401 30.8243 15.2128 31.0106 15.4618C31.197 15.7105 33.5903 19.5957 37.3805 21.0905C40.5306 22.3326 41.1716 22.0856 41.8553 22.0234C42.539 21.9613 44.0616 21.1215 44.3723 20.2508C44.6831 19.3801 44.6831 18.6339 44.5899 18.4779C44.4966 18.3225 44.248 18.2292 43.8751 18.0428C43.5021 17.8563 41.6688 16.954 41.327 16.8297C40.9851 16.7054 40.7365 16.6433 40.4879 17.0166C40.2392 17.3896 39.5251 18.2292 39.3074 18.4779C39.0899 18.7271 38.8724 18.7582 38.4994 18.5717C38.1265 18.3847 36.9254 17.9913 35.5007 16.721C34.3921 15.7326 33.6438 14.512 33.4261 14.1387C33.2086 13.7657 33.4029 13.5637 33.5899 13.3778C33.7574 13.2108 33.9629 12.9426 34.1493 12.7248C34.3354 12.5071 34.3976 12.3517 34.5219 12.103C34.6462 11.854 34.5841 11.6362 34.4908 11.4498C34.3976 11.2633 33.6729 9.41912 33.3413 8.68184Z" fill="white"/>
<defs>
<filter id="filter0_f_105_336" x="18.5863" y="-3.30556" width="36.8274" height="37.042" filterUnits="userSpaceOnUse" color-interpolation-filters="sRGB">
<feFlood flood-opacity="0" result="BackgroundImageFix"/>
<feBlend mode="normal" in="SourceGraphic" in2="BackgroundImageFix" result="shape"/>
<feGaussianBlur stdDeviation="1.70686" result="effect1_foregroundBlur_105_336"/>
</filter>
<filter id="filter1_d_105_336" x="0.664278" y="-24.6413" width="72.6714" height="72.886" filterUnits="userSpaceOnUse" color-interpolation-filters="sRGB">
<feFlood flood-opacity="0" result="BackgroundImageFix"/>
<feColorMatrix in="SourceAlpha" type="matrix" values="0 0 0 0 0 0 0 0 0 0 0 0 0 0 0 0 0 0 127 0" result="hardAlpha"/>
<feOffset dy="-3.41372"/>
<feGaussianBlur stdDeviation="10.6679"/>
<feColorMatrix type="matrix" values="0 0 0 0 0 0 0 0 0 0 0 0 0 0 0 0 0 0 0.21 0"/>
<feBlend mode="normal" in2="BackgroundImageFix" result="effect1_dropShadow_105_336"/>
<feBlend mode="normal" in="SourceGraphic" in2="effect1_dropShadow_105_336" result="shape"/>
</filter>
<linearGradient id="paint0_linear_105_336" x1="37.0084" y1="29.5872" x2="37.0084" y2="0.521423" gradientUnits="userSpaceOnUse">
<stop stop-color="#20B038"/>
<stop offset="1" stop-color="#60D66A"/>
</linearGradient>
<linearGradient id="paint1_linear_105_336" x1="37.0086" y1="30.1082" x2="37.0086" y2="0.000138919" gradientUnits="userSpaceOnUse">
<stop stop-color="#F9F9F9"/>
<stop offset="1" stop-color="white"/>
</linearGradient>
</defs>
</svg>
