<svg width="30" height="26" viewBox="0 0 30 26" fill="none" xmlns="http://www.w3.org/2000/svg">
<path d="M9.43467 25.3519C20.756 25.3519 26.9472 15.9727 26.9472 7.83941C26.9472 7.57304 26.9418 7.30787 26.9298 7.04382C28.1344 6.1722 29.174 5.09293 30 3.85661C28.8972 4.34687 27.7104 4.67687 26.4655 4.82566C27.7361 4.06358 28.7117 2.85826 29.172 1.4213C27.9637 2.1381 26.6419 2.64337 25.2636 2.91534C24.1404 1.71898 22.5415 0.970703 20.7708 0.970703C17.3718 0.970703 14.6154 3.72715 14.6154 7.12486C14.6154 7.60787 14.6695 8.0777 14.7751 8.52829C9.65957 8.27088 5.12349 5.82168 2.08769 2.0975C1.54092 3.03674 1.25331 4.10429 1.25424 5.19109C1.25424 7.3265 2.34087 9.21164 3.99327 10.3145C3.01587 10.2847 2.0599 10.0207 1.20572 9.54466C1.20482 9.57053 1.20482 9.5957 1.20482 9.62328C1.20482 12.6041 3.32643 15.0929 6.14277 15.6568C5.61381 15.8009 5.068 15.8738 4.51977 15.8735C4.13153 15.8732 3.74418 15.836 3.36297 15.7624C4.14659 18.208 6.41881 19.9876 9.11273 20.0374C7.00611 21.6886 4.35236 22.672 1.46817 22.672C0.971967 22.672 0.481806 22.6438 0 22.5868C2.72402 24.3329 5.95854 25.3516 9.43497 25.3516" fill="#1DA1F2"/>
</svg>
